<svg width="138" height="44" viewBox="0 0 138 44" fill="none" xmlns="http://www.w3.org/2000/svg">
<path fill-rule="evenodd" clip-rule="evenodd" d="M19.8652 7.34245C21.6581 6.12196 23.6003 5.34086 25.7418 5.04794C33.0129 4.07155 38.0927 8.90468 38.7401 14.7142C39.1386 18.1315 38.0927 21.1584 35.7022 23.7458C35.6026 23.8434 35.503 23.9899 35.503 24.1363C35.1046 26.1379 34.2081 26.919 32.1663 27.1631C32.1414 27.1631 32.1289 27.1753 32.1164 27.1875C32.1041 27.1998 32.0916 27.212 32.0667 27.212C31.9173 29.3112 30.5228 30.5317 28.5805 30.5805C28.5805 31.6057 28.2319 32.5333 27.3354 33.2168C26.4889 33.9003 25.4928 34.0955 24.3972 33.8514C24.2477 35.0719 23.4509 35.8042 22.6541 36.5365C22.3239 36.8277 22.0157 37.1404 21.7003 37.4604L21.6998 37.461C21.5396 37.6235 21.3775 37.7879 21.2099 37.9522C20.164 38.9774 18.9688 39.2704 17.6241 38.7821C16.2794 38.294 15.5822 37.2687 15.5324 35.8042C15.5324 35.7554 15.5324 35.7065 15.4826 35.6089C14.5364 35.6578 13.6897 35.316 12.9926 34.6813C12.2953 34.0467 11.9965 33.2168 11.9965 32.2404C11.0502 32.1915 10.2036 31.9474 9.50641 31.264C8.80914 30.6293 8.56014 29.7994 8.51035 28.8718C8.43566 28.8718 8.36096 28.8597 8.28627 28.8475H8.28624H8.2862C8.21151 28.8352 8.13682 28.823 8.06212 28.823C6.16965 28.5789 5.02421 27.2608 5.07401 25.4056C5.07401 25.2104 4.97441 24.9662 4.825 24.8687C2.83293 23.0623 1.33887 20.963 0.691439 18.3756C-0.254797 14.6165 0.193418 11.1016 2.73332 8.07474C6.91669 3.04634 14.6857 2.7046 19.6162 7.19599C19.7656 7.24481 19.8154 7.29363 19.8652 7.34245ZM21.0106 30.2387C21.069 30.2387 21.1102 30.2555 21.1444 30.2694C21.1686 30.2792 21.1892 30.2876 21.2099 30.2876C22.3055 30.3364 23.1521 30.7758 23.7995 31.5569C23.9987 31.801 24.2477 31.9962 24.5465 32.1428C25.2936 32.5821 26.2398 32.2892 26.688 31.5569C27.0865 30.8734 26.9868 30.1412 26.2897 29.4577L19.6162 22.9159L19.2676 22.5741C18.9688 22.2324 19.0185 21.793 19.3174 21.5001C19.6162 21.2071 20.0644 21.1584 20.413 21.4512C20.5151 21.518 20.5939 21.6075 20.6654 21.6887C20.6986 21.7262 20.7301 21.762 20.7617 21.793L27.4849 28.3837C27.9331 28.823 28.4311 29.0671 29.0786 28.9206C29.726 28.7742 30.1244 28.3837 30.2738 27.749C30.473 27.1143 30.224 26.6262 29.7757 26.1868C28.6054 25.0639 27.4475 23.9289 26.2896 22.7938C25.1317 21.6587 23.9738 20.5237 22.8035 19.4009C22.4051 19.0103 22.3553 18.5221 22.7039 18.1804C23.0525 17.8387 23.5505 17.8874 23.949 18.278C24.6212 18.9371 25.2936 19.5839 25.9659 20.2308C26.6383 20.8777 27.3106 21.5245 27.9829 22.1836L30.9711 25.1128C31.8177 25.8938 33.0129 25.7474 33.5607 24.8198C33.9592 24.1852 33.8097 23.4529 33.2121 22.8182C30.0248 19.5473 26.7876 16.374 23.5505 13.2008C23.5007 13.152 23.4011 13.0543 23.2517 12.9567C23.202 13.0055 23.1646 13.0543 23.1272 13.1031C23.0899 13.152 23.0525 13.2008 23.0027 13.2496C22.7032 13.5433 22.4067 13.837 22.1109 14.1299C21.227 15.0056 20.3499 15.8744 19.417 16.7158C16.8771 19.0103 12.9926 18.6197 10.8012 15.9346C12.096 14.6899 13.3907 13.4329 14.6856 12.1758L14.6857 12.1756L14.6862 12.1752C15.981 10.9182 17.2756 9.66124 18.5703 8.41648C14.387 4.26683 6.96648 4.85266 3.62975 9.63696C1.53808 12.6149 1.48827 15.8371 2.73332 19.1079C3.38074 20.8166 4.47639 22.2812 5.92064 23.5017L8.46054 21.0119C9.35695 20.1331 10.4028 19.889 11.598 20.2308C12.7933 20.5725 13.5901 21.3537 13.889 22.5253C13.9543 22.7174 13.9768 22.9305 13.9986 23.1372C14.01 23.2455 14.0213 23.3521 14.0383 23.4529C14.9846 23.4529 15.8312 23.7458 16.4786 24.4293C17.1759 25.1128 17.4249 25.9427 17.4747 26.8214C19.8652 26.919 21.0604 28.5301 21.0106 30.2387ZM35.1046 21.9883C35.0548 21.9883 35.005 22.0859 35.005 22.0859C34.022 21.1465 33.0512 20.2069 32.0925 19.2793L32.0922 19.279L32.0921 19.2788L32.0918 19.2786L32.0916 19.2783L32.091 19.2778C31.1073 18.3259 30.1363 17.3862 29.1782 16.4717L24.198 11.5897C23.5007 10.9063 23.1521 10.9063 22.4549 11.5897C22.0049 12.0309 21.5603 12.4722 21.1176 12.9115C20.2378 13.7848 19.3653 14.6508 18.4707 15.4953C17.0264 16.8622 14.7854 17.1063 13.2913 16.0323V15.9346C14.1435 15.1171 14.9757 14.2932 15.8051 13.4722V13.4721H15.8052C17.2539 12.0378 18.6936 10.6125 20.2138 9.24641C23.4011 6.36606 28.4311 5.73141 32.1164 7.63536C35.005 9.09995 36.5987 11.5409 37.0966 14.6654C37.4951 17.204 36.8477 19.4985 35.4034 21.5978C35.3536 21.6709 35.3037 21.732 35.254 21.793C35.2041 21.854 35.1544 21.915 35.1046 21.9883ZM13.8337 25.1573C13.6563 25.214 13.4528 25.279 13.2913 25.4056C12.3451 26.2355 11.4487 27.1143 10.602 28.0419C10.0542 28.6765 10.1538 29.5553 10.8012 30.1412C11.3989 30.727 12.3451 30.727 12.9427 30.1899C13.7893 29.4088 14.636 28.5789 15.4328 27.749C15.9308 27.2608 16.0304 26.6749 15.7316 26.0403C15.4328 25.4545 14.9348 25.1615 14.0882 25.0639C14.0182 25.0982 13.9298 25.1265 13.8338 25.1572H13.8337V25.1573ZM19.3672 30.0923C19.3672 30.0923 19.417 30.1412 19.4667 30.1412C19.3423 30.312 19.2427 30.5073 19.1431 30.7025C19.0435 30.8978 18.9438 31.0931 18.8193 31.264C18.0723 32.0451 17.3253 32.7774 16.5285 33.5096C15.8312 34.1931 14.885 34.1931 14.1878 33.5096C13.5901 32.875 13.5901 31.9474 14.2874 31.264C15.0344 30.4829 15.8312 29.7018 16.6281 28.9695C17.126 28.4812 17.7237 28.3837 18.3711 28.6765C19.0185 28.9206 19.3672 29.4088 19.3672 30.0923ZM17.0763 35.7065C17.1759 36.39 17.5743 36.9759 18.1719 37.2199C18.8193 37.464 19.417 37.3664 19.915 36.8782C20.1788 36.6196 20.448 36.361 20.7191 36.1007C21.2669 35.5746 21.8222 35.0413 22.3553 34.4861C23.0027 33.8514 22.9529 32.9238 22.3553 32.338C21.7079 31.7034 20.7617 31.6546 20.1142 32.2892C19.2676 33.0703 18.4707 33.8514 17.6739 34.6813C17.5079 34.8766 17.3862 35.1153 17.2644 35.354H17.2644C17.2035 35.4733 17.1426 35.5926 17.0763 35.7065ZM7.76331 27.0655C7.16569 26.7726 6.81708 26.2844 6.71748 25.5521C6.73095 25.5212 6.74442 25.4901 6.758 25.4586C6.89504 25.1412 7.04323 24.7978 7.3151 24.5757C7.8761 23.9524 8.49327 23.3567 9.10328 22.7679C9.3056 22.5726 9.50716 22.3781 9.70563 22.1836C10.353 21.5489 11.2993 21.5978 11.9467 22.2324C12.5443 22.8182 12.5941 23.7458 11.9467 24.3804C11.6829 24.639 11.419 24.903 11.1535 25.1687C10.6168 25.7057 10.0728 26.2501 9.50641 26.7726C9.00836 27.2608 8.41074 27.3584 7.76331 27.0655Z" fill="#FFFFFE"/>
<path d="M25.7418 5.22833L25.7102 4.99919L25.7096 4.99928L25.7418 5.22833ZM19.8652 7.52285L19.7002 7.68694L19.8381 7.8222L19.9982 7.71322L19.8652 7.52285ZM38.7402 14.8946L38.5073 14.9198L38.5074 14.921L38.7402 14.8946ZM35.7022 23.9262L35.8675 24.0905L35.8753 24.082L35.7022 23.9262ZM35.503 24.3167L35.7328 24.3613L35.7373 24.3392V24.3167H35.503ZM32.1663 27.3435V27.5748H32.1804L32.1944 27.5731L32.1663 27.3435ZM32.1164 27.3679L32.2816 27.532L32.1164 27.3679ZM32.0667 27.3924V27.1611H31.8483L31.833 27.3762L32.0667 27.3924ZM28.5805 30.7609L28.5746 30.5298L28.3463 30.5355V30.7609H28.5805ZM27.3355 33.3972L27.1923 33.214L27.1872 33.2181L27.3355 33.3972ZM24.3972 34.0318L24.4487 33.8062L24.1957 33.7499L24.1646 34.0041L24.3972 34.0318ZM22.6541 36.7169L22.8103 36.8893L22.8137 36.8861L22.6541 36.7169ZM21.7003 37.6408L21.866 37.8043L21.8683 37.802L21.7003 37.6408ZM21.7003 37.6408L21.5347 37.4774L21.533 37.479L21.7003 37.6408ZM21.6998 37.6414L21.5325 37.4795L21.5318 37.4801L21.6998 37.6414ZM21.2099 38.1326L21.0448 37.9685L21.2099 38.1326ZM15.5324 35.9846H15.298L15.2983 35.9924L15.5324 35.9846ZM15.4826 35.7893L15.6919 35.6854L15.6231 35.5505L15.4704 35.5584L15.4826 35.7893ZM11.9965 32.4208H12.2307V32.2013L12.0088 32.1899L11.9965 32.4208ZM9.50642 31.4444L9.67163 31.2801L9.66516 31.2744L9.50642 31.4444ZM8.51036 29.0522L8.74431 29.04L8.7325 28.8209H8.51036V29.0522ZM8.28628 29.0279L8.24437 29.2554L8.24803 29.256L8.28628 29.0279ZM8.28625 29.0279L8.32816 28.8003L8.32477 28.7997L8.28625 29.0279ZM8.28622 29.0279L8.32473 28.7997L8.32447 28.7997L8.28622 29.0279ZM8.06214 29.0034L8.03179 29.2327L8.0469 29.2347H8.06214V29.0034ZM5.07402 25.586L5.30829 25.5922V25.586H5.07402ZM4.82502 25.0491L4.66654 25.2193L4.68021 25.2317L4.69569 25.2418L4.82502 25.0491ZM0.691454 18.556L0.918889 18.5006L0.918804 18.5002L0.691454 18.556ZM2.73333 8.25514L2.91375 8.40266L2.91437 8.40191L2.73333 8.25514ZM19.6162 7.37639L19.4573 7.54634L19.4945 7.58022L19.5426 7.59593L19.6162 7.37639ZM21.1445 30.4498L21.0554 30.6636L21.1445 30.4498ZM21.0107 30.4191L20.7765 30.4125L20.7695 30.6504H21.0107V30.4191ZM21.2099 30.468L21.2205 30.2367H21.2099V30.468ZM23.7995 31.7373L23.982 31.5922L23.9809 31.5908L23.7995 31.7373ZM24.5466 32.3232L24.6665 32.1245L24.6588 32.1199L24.6508 32.116L24.5466 32.3232ZM26.688 31.7373L26.8887 31.8569L26.8911 31.8526L26.688 31.7373ZM26.2897 29.6381L26.1246 29.8022L26.2897 29.6381ZM19.6162 23.0963L19.7812 22.9322L19.6162 23.0963ZM19.2676 22.7545L19.0902 22.9056L19.0961 22.9123L19.1025 22.9186L19.2676 22.7545ZM19.3174 21.6805L19.1523 21.5164L19.3174 21.6805ZM20.413 21.6316L20.2612 21.8078L20.272 21.8168L20.2837 21.8245L20.413 21.6316ZM20.6654 21.8691L20.4886 22.0208L20.6654 21.8691ZM20.7617 21.9734L20.9267 21.8093L20.7617 21.9734ZM27.4849 28.5641L27.3198 28.7282L27.4849 28.5641ZM29.0786 29.101L29.1309 29.3264L29.0786 29.101ZM30.2738 27.9294L30.05 27.861L30.0475 27.8689L30.0456 27.8771L30.2738 27.9294ZM29.7758 26.3672L29.9409 26.2031L29.9391 26.2013L29.7758 26.3672ZM26.2896 22.9742L26.4547 22.8101L26.2896 22.9742ZM22.8035 19.5813L22.6384 19.7454L22.6402 19.7471L22.8035 19.5813ZM22.7039 18.3608L22.5388 18.1967L22.7039 18.3608ZM23.949 18.4584L23.7839 18.6225L23.949 18.4584ZM25.9659 20.4112L26.1295 20.2456L25.9659 20.4112ZM27.983 22.364L27.8179 22.5281L27.983 22.364ZM30.9711 25.2932L30.8059 25.4573L30.8111 25.4621L30.9711 25.2932ZM33.5607 25.0002L33.3615 24.8784L33.3583 24.8838L33.5607 25.0002ZM33.2122 22.9986L33.3837 22.8412L33.381 22.8383L33.2122 22.9986ZM23.5506 13.3812L23.3855 13.5453L23.5506 13.3812ZM23.2517 13.1371L23.381 12.9442L23.222 12.8404L23.0866 12.973L23.2517 13.1371ZM23.1272 13.2835L23.3141 13.4229L23.1272 13.2835ZM23.0028 13.43L22.8376 13.2659L23.0028 13.43ZM22.111 14.3103L22.2769 14.4735L22.111 14.3103ZM19.417 16.8962L19.259 16.7254L19.2588 16.7256L19.417 16.8962ZM10.8013 16.115L10.6378 15.9494L10.4851 16.0963L10.6188 16.2602L10.8013 16.115ZM14.6856 12.3562L14.5215 12.1911L14.5213 12.1914L14.6856 12.3562ZM14.6858 12.356L14.5218 12.1909V12.1909L14.6858 12.356ZM14.6862 12.3556L14.8502 12.5207L14.8505 12.5205L14.6862 12.3556ZM18.5704 8.59688L18.7338 8.76254L18.9035 8.59945L18.7364 8.43375L18.5704 8.59688ZM3.62977 9.81736L3.82228 9.94913L3.82272 9.9485L3.62977 9.81736ZM2.73333 19.2883L2.95276 19.2073L2.95263 19.207L2.73333 19.2883ZM5.92066 23.6821L5.76831 23.8577L5.93243 23.9964L6.08573 23.8462L5.92066 23.6821ZM8.46056 21.1923L8.29549 21.0282L8.46056 21.1923ZM11.598 20.4112L11.6633 20.1891L11.598 20.4112ZM13.889 22.7057L13.6618 22.7622L13.664 22.7708L13.6669 22.7793L13.889 22.7057ZM13.9986 23.3175L13.7656 23.3415L13.7663 23.3485L13.7675 23.3556L13.9986 23.3175ZM13.9986 23.3175L14.2316 23.2936L14.2308 23.2866L14.2297 23.2795L13.9986 23.3175ZM14.0383 23.6333L13.8074 23.6715L13.8402 23.8645H14.0383V23.6333ZM16.4786 24.6097L16.3074 24.7677L16.3136 24.7738L16.4786 24.6097ZM17.4747 27.0018L17.2408 27.0147L17.2527 27.2242L17.465 27.2329L17.4747 27.0018ZM35.005 22.2663L34.8421 22.4324L35.0709 22.6513L35.2143 22.3703L35.005 22.2663ZM35.1046 22.1687V22.4H35.2295L35.2991 22.2976L35.1046 22.1687ZM32.0925 19.4597L32.2565 19.2944L32.2543 19.2923L32.0925 19.4597ZM32.0923 19.4594L31.9286 19.6249L31.9305 19.6267L32.0923 19.4594ZM32.0916 19.4587L32.2553 19.2933L32.2548 19.2929L32.0916 19.4587ZM32.091 19.4582L31.9271 19.6233L31.9277 19.624L32.091 19.4582ZM29.1782 16.6521L29.0131 16.8162L29.0153 16.8183L29.1782 16.6521ZM24.198 11.7701L24.3631 11.6061L24.198 11.7701ZM22.4549 11.7701L22.2898 11.6061L22.4549 11.7701ZM21.1177 13.0919L20.9516 12.9288L21.1177 13.0919ZM18.4707 15.6757L18.3088 15.5086L18.3086 15.5088L18.4707 15.6757ZM13.2913 16.2127H13.057V16.3304L13.1535 16.3997L13.2913 16.2127ZM13.2913 16.115L13.1281 15.9493L13.057 16.0174V16.115H13.2913ZM15.8051 13.6526L15.6394 13.4891L15.6391 13.4892L15.8051 13.6526ZM15.8052 13.6525L15.9708 13.8159L15.971 13.8158L15.8052 13.6525ZM20.2138 9.42681L20.3715 9.59782L20.372 9.59738L20.2138 9.42681ZM32.1164 7.81576L32.0078 8.02066L32.0094 8.02146L32.1164 7.81576ZM37.0966 14.8458L37.3282 14.8103L37.3281 14.8099L37.0966 14.8458ZM35.4034 21.7782L35.2096 21.6482L35.2089 21.6492L35.4034 21.7782ZM35.254 21.9734L35.4365 22.1185L35.254 21.9734ZM13.8337 25.3377L13.9059 25.5577L13.9137 25.5549L13.8337 25.3377ZM13.8337 25.3377L13.7693 25.1153L13.7613 25.1175L13.7537 25.1203L13.8337 25.3377ZM13.2913 25.586L13.1454 25.4047L13.1358 25.4131L13.2913 25.586ZM10.602 28.2223L10.4279 28.0674L10.4237 28.0723L10.602 28.2223ZM10.8013 30.3216L10.9665 30.1573L10.9595 30.1511L10.8013 30.3216ZM12.9427 30.3703L13.1004 30.5413L13.1027 30.5393L12.9427 30.3703ZM15.4328 27.9294L15.2677 27.7652L15.2628 27.7703L15.4328 27.9294ZM15.7316 26.2207L15.9442 26.1232L15.9409 26.1167L15.7316 26.2207ZM14.0882 25.2443L14.1154 25.0146L14.0463 25.0067L13.984 25.0372L14.0882 25.2443ZM13.8338 25.3376L13.7615 25.1175L13.7568 25.1192L13.8338 25.3376ZM13.8337 25.3376L13.8982 25.5603L13.9107 25.556L13.8337 25.3376ZM19.4667 30.3216L19.657 30.4566L19.9238 30.0903H19.4667V30.3216ZM19.3672 30.2727H19.133V30.369L19.2021 30.4368L19.3672 30.2727ZM19.1431 30.8829L19.3523 30.9869L19.1431 30.8829ZM18.8193 31.4444L18.9897 31.6031L19.0005 31.592L19.0096 31.5794L18.8193 31.4444ZM16.5285 33.69L16.3687 33.5208L16.3634 33.5259L16.5285 33.69ZM14.1878 33.69L14.016 33.8477L14.0227 33.8541L14.1878 33.69ZM14.2874 31.4444L14.4525 31.6085L14.4578 31.6031L14.2874 31.4444ZM16.6281 29.1499L16.7878 29.3192L16.7931 29.314L16.6281 29.1499ZM18.3711 28.8569L18.2735 29.0672L18.2804 29.0703L18.2875 29.073L18.3711 28.8569ZM18.1719 37.4003L18.0823 37.6141L18.0883 37.6164L18.1719 37.4003ZM17.0763 35.8869L16.8732 35.7716L16.8329 35.8408L16.8444 35.9198L17.0763 35.8869ZM19.915 37.0586L20.0801 37.2227L19.915 37.0586ZM20.7191 36.2811L20.5558 36.1153L20.7191 36.2811ZM22.3553 34.6665L22.1901 34.5023L22.1853 34.5074L22.3553 34.6665ZM22.3553 32.5184L22.1902 32.6825L22.3553 32.5184ZM20.1143 32.4696L20.2742 32.6386L20.2793 32.6337L20.1143 32.4696ZM17.674 34.8617L17.5039 34.7026L17.499 34.7077L17.4945 34.7131L17.674 34.8617ZM17.2645 35.5344L17.0552 35.4303L17.0549 35.431L17.2645 35.5344ZM17.2644 35.5344L17.4736 35.6385L17.4739 35.6379L17.2644 35.5344ZM6.71749 25.7325L6.5024 25.6409L6.47667 25.6997L6.4853 25.7633L6.71749 25.7325ZM7.76333 27.2459L7.6591 27.4531L7.66572 27.4561L7.76333 27.2459ZM6.75802 25.639L6.97353 25.7297L6.75802 25.639ZM7.31511 24.7561L7.46447 24.9343L7.47831 24.923L7.49024 24.9098L7.31511 24.7561ZM9.1033 22.9483L9.2671 23.1136L9.1033 22.9483ZM9.70564 22.364L9.87066 22.5281L9.70564 22.364ZM11.9467 22.4128L11.7816 22.5769L11.9467 22.4128ZM11.9467 24.5608L12.1117 24.7249L11.9467 24.5608ZM11.1535 25.3491L11.3203 25.5116L11.1535 25.3491ZM9.50642 26.953L9.34637 26.784L9.34131 26.7889L9.50642 26.953ZM25.7096 4.99928C23.5293 5.2975 21.5529 6.09306 19.7322 7.33248L19.9982 7.71322C21.7633 6.51167 23.6714 5.745 25.774 5.4574L25.7096 4.99928ZM38.973 14.8693C38.3121 8.93908 33.1203 4.00414 25.7102 4.99919L25.7734 5.45747C32.9054 4.49976 37.8733 9.23106 38.5073 14.9198L38.973 14.8693ZM35.8753 24.082C38.309 21.4478 39.3794 18.3553 38.9728 14.8681L38.5074 14.921C38.8977 18.2686 37.8764 21.2297 35.5291 23.7703L35.8753 24.082ZM35.7373 24.3167C35.7373 24.2632 35.7828 24.1731 35.8673 24.0903L35.5372 23.7621C35.4225 23.8745 35.2687 24.0773 35.2687 24.3167H35.7373ZM32.1944 27.5731C33.2373 27.4484 34.028 27.1826 34.6087 26.6601C35.1904 26.1369 35.5289 25.3859 35.7328 24.3613L35.2731 24.2722C35.0787 25.2492 34.7698 25.8895 34.2931 26.3183C33.8157 26.7478 33.1372 26.9945 32.1381 27.1139L32.1944 27.5731ZM32.2816 27.532C32.2908 27.523 32.2775 27.5376 32.2566 27.5498C32.2289 27.5662 32.1968 27.5748 32.1663 27.5748V27.1123C32.039 27.1123 31.9665 27.189 31.9514 27.2038L32.2816 27.532ZM32.0667 27.6236C32.1939 27.6236 32.2664 27.5469 32.2816 27.532L31.9514 27.2038C31.9422 27.2129 31.9555 27.1984 31.9764 27.1861C32.0041 27.1697 32.0361 27.1611 32.0667 27.1611V27.6236ZM28.5865 30.9921C29.6066 30.9665 30.4992 30.632 31.1575 30.013C31.8162 29.3936 32.2222 28.5064 32.3004 27.4085L31.833 27.3762C31.7618 28.3775 31.3958 29.1502 30.8344 29.6781C30.2726 30.2064 29.4968 30.5066 28.5746 30.5298L28.5865 30.9921ZM27.4787 33.5801C28.4433 32.8447 28.8148 31.8431 28.8148 30.7609H28.3463C28.3463 31.7291 28.0205 32.5827 27.1923 33.2141L27.4787 33.5801ZM24.3456 34.2573C25.5042 34.5155 26.5758 34.3092 27.4838 33.5762L27.1872 33.2181C26.402 33.852 25.4814 34.0363 24.4487 33.8062L24.3456 34.2573ZM22.8137 36.8861C23.6029 36.1608 24.4687 35.3752 24.6298 34.0596L24.1646 34.0041C24.0269 35.1294 23.299 35.8084 22.4945 36.5476L22.8137 36.8861ZM21.8683 37.802C22.1846 37.4811 22.4872 37.1742 22.8102 36.8893L22.498 36.5445C22.1608 36.842 21.8469 37.1605 21.5325 37.4795L21.8683 37.802ZM21.8659 37.8043L21.866 37.8043L21.5348 37.4773L21.5347 37.4774L21.8659 37.8043ZM21.8671 37.8032L21.8676 37.8027L21.533 37.479L21.5325 37.4795L21.8671 37.8032ZM21.3749 38.2967C21.5443 38.1307 21.7077 37.9649 21.8677 37.8027L21.5318 37.4801C21.3715 37.6428 21.2108 37.8058 21.0448 37.9685L21.3749 38.2967ZM17.5432 39.1796C18.2523 39.4371 18.9345 39.4925 19.5832 39.3401C20.2311 39.188 20.8281 38.8328 21.3749 38.2967L21.0448 37.9685C20.5458 38.4577 20.0222 38.7616 19.4748 38.8902C18.9284 39.0185 18.3406 38.9763 17.705 38.7455L17.5432 39.1796ZM15.2983 35.9924C15.3244 36.7591 15.5207 37.4268 15.8997 37.9708C16.2794 38.5159 16.8318 38.9213 17.5432 39.1796L17.705 38.7455C17.0717 38.5157 16.6033 38.1644 16.2857 37.7087C15.9675 37.2518 15.7903 36.6746 15.7666 35.9768L15.2983 35.9924ZM15.2734 35.8933C15.2912 35.9282 15.2953 35.945 15.2965 35.9509C15.2978 35.9567 15.2981 35.9605 15.2981 35.9846H15.7667C15.7667 35.9598 15.7671 35.9148 15.7559 35.8596C15.7446 35.8045 15.7239 35.7482 15.6919 35.6854L15.2734 35.8933ZM12.8337 35.0317C13.5719 35.7036 14.4786 36.0727 15.4948 36.0202L15.4704 35.5584C14.5942 35.6036 13.8077 35.2892 13.1513 34.6917L12.8337 35.0317ZM11.7622 32.4208C11.7622 33.4475 12.0788 34.3445 12.8337 35.0317L13.1513 34.6917C12.5119 34.1096 12.2307 33.3468 12.2307 32.4208H11.7622ZM9.34131 31.6084C10.093 32.3453 11.0029 32.601 11.9843 32.6517L12.0088 32.1899C11.0976 32.1428 10.3143 31.9104 9.67144 31.2803L9.34131 31.6084ZM8.27643 29.0645C8.328 30.0251 8.58857 30.9235 9.34759 31.6143L9.66516 31.2744C9.02974 30.696 8.79229 29.9345 8.74431 29.04L8.27643 29.0645ZM8.24803 29.256C8.31931 29.2676 8.41313 29.2834 8.51036 29.2834V28.8209C8.4582 28.8209 8.40264 28.8124 8.32454 28.7997L8.24803 29.256ZM8.24434 29.2553H8.24438L8.32819 28.8003H8.32816L8.24434 29.2553ZM8.2477 29.256H8.24774L8.32477 28.7997H8.32473L8.2477 29.256ZM8.06214 29.2347C8.1143 29.2347 8.16986 29.2432 8.24797 29.256L8.32447 28.7997C8.2532 28.788 8.15937 28.7722 8.06214 28.7722V29.2347ZM4.83984 25.5799C4.81361 26.5571 5.10259 27.4086 5.66226 28.0499C6.22179 28.6909 7.03691 29.1043 8.03179 29.2327L8.0925 28.7741C7.1949 28.6583 6.49106 28.2908 6.0172 27.7479C5.54347 27.2052 5.28464 26.4701 5.30821 25.5921L4.83984 25.5799ZM4.69569 25.2418C4.71974 25.2576 4.75801 25.2998 4.79117 25.3742C4.8231 25.4457 4.83976 25.524 4.83976 25.586H5.30829C5.30829 25.4529 5.27515 25.3114 5.21993 25.1877C5.16593 25.0667 5.0797 24.9382 4.95434 24.8562L4.69569 25.2418ZM0.464019 18.6115C1.12534 21.2544 2.6505 23.3913 4.66654 25.2193L4.98349 24.8788C3.01538 23.0942 1.55242 21.0325 0.918889 18.5006L0.464019 18.6115ZM2.55292 8.10763C-0.0446467 11.2032 -0.49583 14.7983 0.464104 18.6118L0.918804 18.5002C-0.0137347 14.7956 0.431513 11.3607 2.91375 8.40266L2.55292 8.10763ZM19.775 7.20645C14.752 2.63068 6.82654 2.97073 2.55229 8.10838L2.91437 8.40191C7.00686 3.48274 14.6195 3.13932 19.4573 7.54634L19.775 7.20645ZM20.0303 7.35877C20.0051 7.33408 19.9659 7.29504 19.9074 7.25679C19.849 7.21865 19.7794 7.18614 19.6898 7.15686L19.5426 7.59593C19.6023 7.61546 19.6324 7.63177 19.6487 7.64244C19.6649 7.65302 19.6755 7.66279 19.7002 7.68694L20.0303 7.35877ZM21.2336 30.2359C21.1964 30.2208 21.1184 30.1879 21.0107 30.1879V30.6504C21.0162 30.6504 21.0202 30.651 21.0246 30.6523C21.0309 30.654 21.0374 30.6564 21.0554 30.6636L21.2336 30.2359ZM21.2099 30.2367C21.2315 30.2367 21.246 30.2412 21.2484 30.2418C21.2497 30.2423 21.2495 30.2423 21.2467 30.2412C21.2436 30.24 21.24 30.2386 21.2336 30.2359L21.0554 30.6636C21.0673 30.6685 21.1337 30.6992 21.2099 30.6992V30.2367ZM23.9809 31.5908C23.2917 30.7593 22.3831 30.2888 21.2205 30.237L21.1993 30.699C22.2279 30.7448 23.0127 31.153 23.6182 31.8837L23.9809 31.5908ZM24.6508 32.116C24.3807 31.9836 24.1589 31.809 23.982 31.5922L23.6171 31.8824C23.8386 32.1538 24.1149 32.3697 24.4424 32.5303L24.6508 32.116ZM26.4876 31.6177C26.0977 32.2547 25.2896 32.491 24.6665 32.1245L24.4267 32.5218C25.2976 33.034 26.382 32.6845 26.8886 31.8569L26.4876 31.6177ZM26.1246 29.8022C26.4479 30.1191 26.6169 30.4316 26.6689 30.7273C26.7206 31.0206 26.661 31.3201 26.4851 31.6219L26.8911 31.8526C27.1136 31.471 27.2034 31.0627 27.1305 30.6481C27.058 30.2358 26.8287 29.8406 26.4547 29.474L26.1246 29.8022ZM19.4511 23.2603L26.1246 29.8022L26.4547 29.474L19.7812 22.9322L19.4511 23.2603ZM19.1025 22.9186L19.4511 23.2604L19.7812 22.9322L19.4326 22.5904L19.1025 22.9186ZM19.1523 21.5164C18.7744 21.8869 18.7038 22.4636 19.0902 22.9056L19.4449 22.6035C19.2338 22.3619 19.2628 22.0599 19.4825 21.8446L19.1523 21.5164ZM20.5649 21.4556C20.1154 21.0778 19.5297 21.1465 19.1523 21.5164L19.4825 21.8446C19.7027 21.6287 20.0134 21.5996 20.2612 21.8078L20.5649 21.4556ZM20.8423 21.7174C20.7737 21.6394 20.6751 21.5256 20.5423 21.4389L20.2837 21.8245C20.3552 21.8712 20.4143 21.9363 20.4886 22.0208L20.8423 21.7174ZM20.9267 21.8093C20.9024 21.7855 20.8767 21.7565 20.8423 21.7174L20.4886 22.0208C20.5205 22.0569 20.5578 22.0995 20.5966 22.1375L20.9267 21.8093ZM27.6499 28.4L20.9267 21.8093L20.5966 22.1375L27.3198 28.7282L27.6499 28.4ZM29.0262 28.8756C28.4839 28.9983 28.0638 28.8057 27.6499 28.4L27.3198 28.7282C27.8024 29.2012 28.3784 29.4966 29.1309 29.3264L29.0262 28.8756ZM30.0456 27.8771C29.9791 28.1596 29.8606 28.3746 29.6979 28.5342C29.535 28.6938 29.3152 28.8103 29.0262 28.8756L29.1309 29.3264C29.4894 29.2453 29.7925 29.0933 30.028 28.8624C30.2636 28.6314 30.4191 28.3338 30.502 27.9818L30.0456 27.8771ZM29.6107 26.5313C29.8209 26.7374 29.9698 26.941 30.0471 27.1533C30.1227 27.3604 30.1352 27.5897 30.05 27.861L30.4976 27.9979C30.6116 27.6344 30.5993 27.3022 30.488 26.9967C30.3787 26.6965 30.1789 26.4364 29.9409 26.2031L29.6107 26.5313ZM26.1246 23.1383C27.2823 24.2732 28.4411 25.4092 29.6125 26.5329L29.9391 26.2013C28.7697 25.0795 27.6127 23.9453 26.4547 22.8101L26.1246 23.1383ZM22.6402 19.7471C23.8096 20.8689 24.9666 22.003 26.1246 23.1383L26.4547 22.8101C25.297 21.6752 24.1382 20.5393 22.9668 19.4154L22.6402 19.7471ZM22.5388 18.1967C22.3175 18.4137 22.2152 18.6877 22.2402 18.9725C22.2646 19.2524 22.4092 19.5206 22.6384 19.7454L22.9686 19.4172C22.7994 19.2513 22.7199 19.0802 22.707 18.9328C22.6946 18.7905 22.7418 18.6495 22.8689 18.5248L22.5388 18.1967ZM24.114 18.2943C23.8847 18.0696 23.6117 17.9284 23.3276 17.9045C23.0388 17.8803 22.7601 17.9797 22.5388 18.1967L22.8689 18.5248C22.9963 18.4001 23.141 18.3531 23.2879 18.3654C23.4396 18.3781 23.6148 18.4568 23.7839 18.6225L24.114 18.2943ZM26.1295 20.2456C25.457 19.5986 24.7854 18.9525 24.114 18.2943L23.7839 18.6225C24.4572 19.2824 25.1303 19.93 25.8024 20.5768L26.1295 20.2456ZM28.148 22.1999C27.4748 21.5399 26.8017 20.8923 26.1295 20.2456L25.8024 20.5768C26.4749 21.2238 27.1464 21.8698 27.8179 22.5281L28.148 22.1999ZM31.1361 25.1291L28.148 22.1999L27.8179 22.5281L30.806 25.4572L31.1361 25.1291ZM33.3583 24.8838C32.8934 25.671 31.8783 25.8138 31.131 25.1242L30.8111 25.4621C31.757 26.3348 33.1324 26.1846 33.7631 25.1167L33.3583 24.8838ZM33.0406 23.156C33.589 23.7385 33.6886 24.3575 33.3616 24.8784L33.7599 25.122C34.2297 24.3735 34.0305 23.528 33.3837 22.8412L33.0406 23.156ZM23.3855 13.5453C26.6229 16.7189 29.8581 19.8902 33.0433 23.1589L33.381 22.8383C30.1914 19.5652 26.9525 16.39 23.7156 13.2171L23.3855 13.5453ZM23.1224 13.3299C23.2519 13.4146 23.3383 13.499 23.3855 13.5453L23.7156 13.2171C23.6632 13.1657 23.5504 13.0549 23.381 12.9442L23.1224 13.3299ZM23.3141 13.4229C23.3523 13.3732 23.3804 13.3369 23.4168 13.3012L23.0866 12.973C23.0235 13.035 22.9769 13.0963 22.9403 13.1442L23.3141 13.4229ZM23.1678 13.5941C23.231 13.5322 23.2776 13.4707 23.3141 13.4229L22.9403 13.1442C22.9022 13.194 22.8741 13.2302 22.8376 13.2659L23.1678 13.5941ZM22.2769 14.4735C22.5726 14.1805 22.8688 13.8873 23.1678 13.5941L22.8376 13.2659C22.5376 13.5601 22.2406 13.8542 21.945 14.1471L22.2769 14.4735ZM19.575 17.067C20.5127 16.2212 21.3935 15.3486 22.2769 14.4735L21.945 14.1471C21.0604 15.0234 20.1873 15.8883 19.259 16.7254L19.575 17.067ZM10.6188 16.2602C12.8894 19.0425 16.9292 19.4571 19.5752 17.0668L19.2588 16.7256C16.825 18.9244 13.0957 18.5579 10.9837 15.97L10.6188 16.2602ZM14.5213 12.1914C13.2265 13.4484 11.9321 14.7051 10.6378 15.9494L10.9647 16.2807C12.26 15.0355 13.5551 13.778 14.8498 12.5211L14.5213 12.1914ZM14.5218 12.1909L14.5215 12.1911L14.8496 12.5213L14.8498 12.521L14.5218 12.1909ZM14.5222 12.1905L14.5218 12.1909L14.8498 12.5211L14.8502 12.5207L14.5222 12.1905ZM18.4069 8.43122C17.1117 9.67644 15.8166 10.9338 14.522 12.1907L14.8505 12.5205C16.1452 11.2634 17.4396 10.0068 18.7338 8.76254L18.4069 8.43122ZM3.82272 9.9485C7.074 5.28674 14.3215 4.71007 18.4043 8.76L18.7364 8.43375C14.4525 4.18437 6.85901 4.77938 3.43681 9.68623L3.82272 9.9485ZM2.95263 19.207C1.72815 15.9901 1.78399 12.8511 3.82228 9.94913L3.43725 9.6856C1.2922 12.7396 1.24843 16.0447 2.51404 19.3696L2.95263 19.207ZM6.07301 23.5064C4.65514 22.3082 3.58467 20.8751 2.95276 19.2073L2.51391 19.3694C3.17684 21.1189 4.29767 22.615 5.76831 23.8577L6.07301 23.5064ZM8.29549 21.0282L5.75559 23.518L6.08573 23.8462L8.62568 21.3564L8.29549 21.0282ZM11.6633 20.1891C11.0332 20.0089 10.4305 19.9801 9.86082 20.1196C9.2909 20.2593 8.76905 20.5639 8.29549 21.0282L8.62568 21.3564C9.04848 20.9419 9.4978 20.6851 9.97374 20.5684C10.45 20.4518 10.9678 20.4717 11.5329 20.6333L11.6633 20.1891ZM14.1161 22.6492C13.7958 21.3934 12.9339 20.5524 11.6633 20.1891L11.5329 20.6333C12.6528 20.9535 13.3845 21.6747 13.6618 22.7622L14.1161 22.6492ZM14.2316 23.2936C14.2103 23.0922 14.1861 22.8527 14.1111 22.6321L13.6669 22.7793C13.7226 22.9428 13.7433 23.1297 13.7656 23.3415L14.2316 23.2936ZM14.2297 23.2795L13.7675 23.3556L14.2297 23.2795ZM14.2694 23.595C14.2537 23.5026 14.2432 23.4035 14.2316 23.2936L13.7656 23.3415C13.7768 23.4483 13.7888 23.5623 13.8074 23.6715L14.2694 23.595ZM16.6497 24.4517C15.95 23.7129 15.0365 23.402 14.0383 23.402V23.8645C14.9328 23.8645 15.7126 24.1395 16.3075 24.7676L16.6497 24.4517ZM17.7086 26.9889C17.6567 26.0737 17.3948 25.1818 16.6438 24.4456L16.3136 24.7738C16.957 25.4044 17.1931 26.1725 17.2408 27.0147L17.7086 26.9889ZM21.2448 30.4258C21.2713 29.5163 20.9663 28.6258 20.3294 27.9489C19.6909 27.2704 18.7335 26.8217 17.4844 26.7708L17.465 27.2329C18.6064 27.2795 19.4419 27.6852 19.9862 28.2637C20.5321 28.844 20.7998 29.6133 20.7765 30.4125L21.2448 30.4258ZM35.005 22.2663C35.2143 22.3703 35.2142 22.3703 35.2142 22.3704C35.2141 22.3705 35.2141 22.3705 35.2141 22.3706C35.214 22.3707 35.214 22.3708 35.2139 22.3709C35.2138 22.3711 35.2138 22.3713 35.2137 22.3714C35.2135 22.3716 35.2134 22.3718 35.2134 22.3719C35.2132 22.3722 35.2132 22.3722 35.2134 22.3719C35.2137 22.3714 35.2145 22.3701 35.2156 22.3682C35.218 22.3641 35.2208 22.3598 35.2231 22.3568C35.2264 22.3526 35.2236 22.3572 35.2137 22.365C35.2071 22.3703 35.1685 22.4 35.1046 22.4V21.9375C35.0158 21.9375 34.9524 21.9794 34.9223 22.0028C34.8891 22.0289 34.8646 22.058 34.8492 22.0781C34.8328 22.0996 34.82 22.1198 34.8115 22.1339C34.8072 22.1412 34.8037 22.1475 34.801 22.1523C34.7997 22.1547 34.7986 22.1569 34.7978 22.1585C34.7973 22.1594 34.7969 22.1601 34.7966 22.1607C34.7964 22.161 34.7963 22.1613 34.7962 22.1616C34.7961 22.1618 34.796 22.1619 34.796 22.1619C34.7959 22.162 34.7959 22.1621 34.7959 22.1621C34.7958 22.1622 34.7958 22.1622 34.7958 22.1622C34.7958 22.1623 34.7958 22.1623 35.005 22.2663ZM31.9286 19.6248C32.8872 20.5524 33.8584 21.4924 34.8421 22.4324L35.168 22.1002C34.1856 21.1613 33.2153 20.2223 32.2565 19.2945L31.9286 19.6248ZM31.9305 19.6267L31.9308 19.6269L32.2543 19.2923L32.254 19.2921L31.9305 19.6267ZM31.9283 19.6246L31.9286 19.6248L32.2561 19.294L32.2558 19.2938L31.9283 19.6246ZM31.9281 19.6244L31.9283 19.6246L32.2558 19.2938L32.2556 19.2936L31.9281 19.6244ZM31.9278 19.6241L31.9281 19.6244L32.2556 19.2936L32.2553 19.2933L31.9278 19.6241ZM31.9277 19.624L31.9284 19.6246L32.2548 19.2929L32.2543 19.2923L31.9277 19.624ZM29.0153 16.8183C29.9728 17.7322 30.9432 18.6713 31.9271 19.6233L32.255 19.2931C31.2714 18.3412 30.2999 17.4011 29.341 16.4859L29.0153 16.8183ZM24.0329 11.9342L29.0131 16.8162L29.3432 16.488L24.3631 11.6061L24.0329 11.9342ZM22.62 11.9342C22.9696 11.5916 23.1696 11.4888 23.3264 11.4888C23.4832 11.4888 23.6833 11.5916 24.0329 11.9342L24.3631 11.6061C24.0153 11.2652 23.6926 11.0263 23.3264 11.0263C22.9603 11.0263 22.6375 11.2652 22.2898 11.6061L22.62 11.9342ZM21.2838 13.2549C21.7266 12.8156 22.1705 12.3748 22.62 11.9342L22.2898 11.6061C21.8391 12.0478 21.3942 12.4895 20.9516 12.9288L21.2838 13.2549ZM18.6327 15.8428C19.5297 14.9961 20.4043 14.128 21.2838 13.2549L20.9516 12.9288C20.0714 13.8024 19.2009 14.6665 18.3088 15.5086L18.6327 15.8428ZM13.1535 16.3997C14.7517 17.5486 17.1184 17.276 18.6329 15.8426L18.3086 15.5088C16.9346 16.8092 14.8191 17.0249 13.4293 16.0258L13.1535 16.3997ZM13.057 16.115V16.2127H13.5256V16.115H13.057ZM15.6391 13.4892C14.8096 14.3105 13.9787 15.1332 13.1281 15.9493L13.4546 16.2809C14.3082 15.4619 15.1418 14.6367 15.9709 13.8159L15.6391 13.4892ZM15.6394 13.4891L15.9707 13.816H15.9708L15.6394 13.4891ZM15.6394 13.489V13.4891L15.9708 13.816L15.6394 13.489ZM15.6394 13.489L15.9708 13.816L15.6394 13.489ZM15.6395 13.489H15.6394L15.9708 13.816L15.6395 13.489ZM15.6395 13.489L15.9708 13.816V13.8159L15.6395 13.489ZM20.0562 9.2558C18.531 10.6262 17.0874 12.0555 15.6392 13.4891L15.971 13.8158C17.4205 12.3808 18.8562 10.9595 20.3715 9.59782L20.0562 9.2558ZM32.2251 7.61088C28.451 5.66108 23.3146 6.31117 20.0556 9.25624L20.372 9.59738C23.4877 6.78176 28.4112 6.16254 32.0078 8.02065L32.2251 7.61088ZM37.3281 14.8099C36.8198 11.6214 35.1864 9.11231 32.2235 7.61007L32.0094 8.02146C34.8237 9.44839 36.3775 11.8213 36.8653 14.8817L37.3281 14.8099ZM35.5973 21.908C37.0701 19.7671 37.7369 17.4144 37.3282 14.8103L36.8652 14.8812C37.2533 17.3544 36.6252 19.5906 35.2096 21.6482L35.5973 21.908ZM35.4365 22.1185C35.4857 22.0581 35.5417 21.9897 35.5979 21.907L35.2089 21.6492C35.1656 21.713 35.1219 21.7667 35.0716 21.8283L35.4365 22.1185ZM35.2991 22.2976C35.3425 22.2338 35.3861 22.1801 35.4365 22.1185L35.0716 21.8283C35.0223 21.8888 34.9663 21.9571 34.9101 22.0398L35.2991 22.2976ZM13.9137 25.5549L13.7537 25.1203H13.7536L13.9137 25.5549ZM13.437 25.7671C13.5599 25.6708 13.7213 25.6166 13.9058 25.5576L13.7614 25.1176C13.5912 25.1721 13.3459 25.2479 13.1456 25.405L13.437 25.7671ZM10.7761 28.3771C11.6169 27.4559 12.5072 26.5832 13.447 25.7589L13.1358 25.4131C12.1831 26.2488 11.2805 27.1335 10.428 28.0675L10.7761 28.3771ZM10.9595 30.1511C10.393 29.6384 10.3246 28.9003 10.7804 28.3723L10.4237 28.0723C9.78389 28.8135 9.9147 29.8331 10.643 30.492L10.9595 30.1511ZM12.785 30.1994C12.2779 30.6551 11.4737 30.6547 10.9664 30.1575L10.6361 30.4857C11.324 31.16 12.4123 31.1597 13.1004 30.5413L12.785 30.1994ZM15.2628 27.7703C14.4692 28.5968 13.6259 29.4235 12.7828 30.2014L13.1027 30.5393C13.9528 29.755 14.8028 28.9218 15.6029 28.0884L15.2628 27.7703ZM15.5192 26.3182C15.6525 26.6014 15.6905 26.8588 15.6502 27.0909C15.6099 27.3225 15.4884 27.5491 15.2678 27.7653L15.5979 28.0935C15.8754 27.8215 16.0526 27.511 16.112 27.1691C16.1713 26.8275 16.1095 26.4747 15.944 26.1233L15.5192 26.3182ZM14.061 25.474C14.4643 25.5205 14.765 25.6115 14.9947 25.7477C15.2208 25.8817 15.3909 26.0669 15.5224 26.3247L15.9409 26.1167C15.7736 25.7887 15.5452 25.5345 15.2359 25.3512C14.9303 25.17 14.5587 25.0657 14.1154 25.0146L14.061 25.474ZM13.9059 25.5575C13.9968 25.5286 14.1036 25.4949 14.1924 25.4514L13.984 25.0372C13.9328 25.0623 13.8628 25.0852 13.7616 25.1176L13.9059 25.5575ZM13.9107 25.556V25.556L13.7568 25.1192H13.7568L13.9107 25.556ZM13.8981 25.5599L13.7694 25.1153H13.7693L13.8981 25.5599ZM19.4667 30.0903C19.4922 30.0903 19.5098 30.0962 19.5167 30.099C19.5207 30.1006 19.5234 30.102 19.5249 30.1027C19.5265 30.1035 19.5274 30.1041 19.5277 30.1043C19.5279 30.1045 19.5279 30.1045 19.5278 30.1044C19.5277 30.1043 19.5276 30.1042 19.5276 30.1043C19.5277 30.1043 19.5279 30.1046 19.5287 30.1052C19.5291 30.1056 19.5295 30.1059 19.5301 30.1065C19.5304 30.1068 19.5308 30.1071 19.531 30.1074C19.5312 30.1076 19.5314 30.1078 19.5316 30.108C19.5318 30.1081 19.5319 30.1083 19.532 30.1083L19.5321 30.1084C19.5322 30.1085 19.5322 30.1085 19.5322 30.1085C19.5322 30.1086 19.5322 30.1086 19.3672 30.2727C19.2021 30.4368 19.2021 30.4368 19.2022 30.4369C19.2022 30.4369 19.2022 30.4369 19.2023 30.437C19.2023 30.437 19.2024 30.4371 19.2025 30.4371C19.2026 30.4373 19.2027 30.4374 19.2028 30.4375C19.2031 30.4377 19.2033 30.438 19.2036 30.4382C19.2042 30.4388 19.2047 30.4394 19.2054 30.44C19.2068 30.4413 19.2084 30.4427 19.2102 30.4444C19.2138 30.4477 19.2184 30.4518 19.2239 30.4564C19.2346 30.4655 19.25 30.4775 19.269 30.4899C19.2994 30.5098 19.3719 30.5528 19.4667 30.5528V30.0903ZM19.3523 30.9869C19.4535 30.7885 19.5451 30.6101 19.657 30.4566L19.2766 30.1865C19.1394 30.3747 19.0318 30.5869 18.9338 30.779L19.3523 30.9869ZM19.0096 31.5794C19.1467 31.3911 19.2543 31.179 19.3523 30.9869L18.9338 30.779C18.8326 30.9775 18.741 31.1558 18.6292 31.3094L19.0096 31.5794ZM16.6881 33.8593C17.4886 33.1237 18.2392 32.3878 18.9897 31.6031L18.649 31.2856C17.9054 32.0631 17.1619 32.792 16.3688 33.5209L16.6881 33.8593ZM14.0227 33.8541C14.4099 34.2337 14.8782 34.4339 15.3581 34.4339C15.838 34.4339 16.3064 34.2337 16.6935 33.8541L16.3634 33.5259C16.0533 33.83 15.6999 33.9714 15.3581 33.9714C15.0163 33.9714 14.663 33.83 14.3528 33.5259L14.0227 33.8541ZM14.1223 31.2803C13.3388 32.0483 13.3293 33.118 14.0162 33.8475L14.3594 33.5326C13.851 32.9928 13.8415 32.2074 14.4524 31.6085L14.1223 31.2803ZM16.4684 28.9806C15.6679 29.7163 14.8675 30.5009 14.1171 31.2856L14.4578 31.6031C15.2013 30.8256 15.9946 30.048 16.7877 29.3191L16.4684 28.9806ZM18.4688 28.6468C18.1107 28.4848 17.7518 28.4246 17.4046 28.4825C17.0568 28.5405 16.7405 28.7137 16.463 28.9858L16.7931 29.314C17.0137 29.0978 17.2453 28.9781 17.4826 28.9385C17.7205 28.8988 17.9841 28.9362 18.2735 29.0672L18.4688 28.6468ZM19.6015 30.2727C19.6015 29.8911 19.5036 29.5503 19.3042 29.2678C19.1049 28.9856 18.8146 28.7766 18.4547 28.6409L18.2875 29.073C18.575 29.1814 18.7829 29.3386 18.9198 29.5323C19.0564 29.7259 19.133 29.9709 19.133 30.2727H19.6015ZM18.2615 37.1866C17.7557 36.9801 17.3986 36.4743 17.3081 35.854L16.8444 35.9198C16.9533 36.6665 17.3929 37.3324 18.0823 37.6141L18.2615 37.1866ZM19.7499 36.8945C19.5297 37.1104 19.2968 37.2317 19.0558 37.2769C18.8137 37.3223 18.5468 37.2941 18.2555 37.1843L18.0883 37.6164C18.4445 37.7506 18.8001 37.7957 19.1433 37.7313C19.4875 37.6667 19.8023 37.495 20.0801 37.2227L19.7499 36.8945ZM20.5558 36.1153C20.2848 36.3755 20.0147 36.635 19.7499 36.8945L20.0801 37.2227C20.3429 36.9651 20.6113 36.7073 20.8825 36.4468L20.5558 36.1153ZM22.1853 34.5074C21.656 35.0586 21.1042 35.5887 20.5558 36.1153L20.8825 36.4468C21.4297 35.9212 21.9885 35.3846 22.5253 34.8256L22.1853 34.5074ZM22.1902 32.6825C22.7006 33.1829 22.7404 33.963 22.1902 34.5024L22.5204 34.8306C23.265 34.1006 23.2052 33.0256 22.5204 32.3543L22.1902 32.6825ZM20.2793 32.6337C20.8259 32.0979 21.6243 32.1277 22.1902 32.6825L22.5204 32.3543C21.7914 31.6398 20.6975 31.572 19.9491 32.3055L20.2793 32.6337ZM17.8439 35.0208C18.6375 34.1943 19.431 33.4164 20.2742 32.6385L19.9542 32.3006C19.1042 33.0849 18.3039 33.8693 17.5039 34.7026L17.8439 35.0208ZM17.4737 35.6384C17.598 35.3947 17.708 35.1814 17.8534 35.0104L17.4945 34.7131C17.3078 34.9327 17.1744 35.1967 17.0552 35.4303L17.4737 35.6384ZM17.4739 35.6379L17.474 35.6378L17.0549 35.431H17.0548L17.4739 35.6379ZM17.2794 36.0023C17.3495 35.8818 17.4133 35.7567 17.4736 35.6385L17.0551 35.4304C16.9937 35.5508 16.9358 35.6643 16.8732 35.7716L17.2794 36.0023ZM6.4853 25.7633C6.59434 26.5649 6.98585 27.123 7.65914 27.453L7.86751 27.0388C7.34557 26.783 7.03985 26.3647 6.94968 25.7017L6.4853 25.7633ZM6.5425 25.5484C6.52888 25.5799 6.51562 25.6106 6.5024 25.6409L6.93258 25.8241C6.9463 25.7928 6.95999 25.761 6.97353 25.7297L6.5425 25.5484ZM7.16575 24.578C6.84219 24.8423 6.67449 25.2426 6.54249 25.5484L6.97353 25.7297C7.11562 25.4005 7.24431 25.1141 7.46447 24.9343L7.16575 24.578ZM8.93959 22.7829C8.33055 23.3707 7.70739 23.9722 7.13999 24.6026L7.49024 24.9098C8.04484 24.2936 8.65604 23.7036 9.2671 23.1136L8.93959 22.7829ZM9.54053 22.1999C9.34281 22.3937 9.142 22.5875 8.93959 22.7829L9.2671 23.1136C9.46932 22.9184 9.67153 22.7233 9.87066 22.5281L9.54053 22.1999ZM12.1117 22.2487C11.3828 21.5342 10.2889 21.4663 9.54053 22.1999L9.87066 22.5281C10.4172 21.9923 11.2157 22.0221 11.7816 22.5769L12.1117 22.2487ZM12.1117 24.7249C12.8564 23.9949 12.7965 22.92 12.1117 22.2487L11.7816 22.5769C12.292 23.0772 12.3318 23.8574 11.7816 24.3967L12.1117 24.7249ZM11.3203 25.5116C11.586 25.2456 11.849 24.9826 12.1117 24.7249L11.7816 24.3967C11.5168 24.6563 11.2522 24.9211 10.9867 25.1867L11.3203 25.5116ZM9.66638 27.1219C10.2368 26.5957 10.7841 26.048 11.3203 25.5116L10.9867 25.1867C10.4495 25.7242 9.9087 26.2652 9.34647 26.7841L9.66638 27.1219ZM7.66572 27.4561C8.02371 27.6181 8.38265 27.6784 8.72997 27.6204C9.07772 27.5624 9.39398 27.3891 9.67144 27.1171L9.34131 26.7889C9.12082 27.0051 8.88927 27.1248 8.65182 27.1643C8.41397 27.204 8.15037 27.1667 7.86094 27.0357L7.66572 27.4561Z" fill="#FFFFFE"/>
<path d="M68.2471 27.33H67.1071V30H80.6371C82.4071 30 83.9071 29.88 83.9671 28.41C83.9671 28.17 83.9371 27.99 83.8771 27.78L77.9371 6.69H74.6971L68.2471 27.33ZM71.0371 27.33L76.2271 10.05L80.5471 26.13C80.5771 26.22 80.5771 26.31 80.5771 26.31C80.5771 27.21 79.5571 27.33 78.5371 27.33H71.0371ZM100.553 24.69V12.87C100.223 12.87 99.5928 12.84 98.9628 12.84C98.0329 12.78 98.0628 12.75 98.0329 12.75C91.5828 12.75 86.7828 18.72 86.7828 24.9C86.7828 27.09 87.7428 29.79 90.3228 29.79C91.7028 29.79 92.3328 29.4 93.3228 28.53C93.3228 28.59 93.6228 28.56 93.6228 28.56L90.0828 37.5L92.7228 37.56C92.7228 37.56 96.0828 27.9 97.4628 23.31H95.3328C93.6528 25.92 92.6328 27.24 91.3428 27.24C90.8628 27.24 90.4128 27.06 89.9928 26.7C89.5428 26.19 89.3328 25.41 89.3328 24.36C89.3328 20.04 92.3328 15.9 96.7728 14.94C96.9229 14.91 97.1329 14.91 97.3429 14.91C97.5529 14.91 97.7928 14.91 98.0628 14.94V26.67C98.0628 28.17 98.0028 29.28 98.0329 29.97H101.723C100.793 28.53 100.523 27.36 100.523 25.65C100.523 25.23 100.553 24.96 100.553 24.69ZM114.921 30H117.501L117.591 28.05C117.801 23.64 116.151 19.5 112.101 19.5C111.891 19.5 111.801 19.53 111.681 19.53H111.441L117.021 13.14H113.901L108.291 20.37V7.5H105.921V30H108.291V20.91C108.951 20.7 109.041 20.7 109.341 20.7H109.731C113.961 20.7 115.161 24.06 115.011 27.87L114.921 30ZM131.279 26.82C131.399 28.17 131.609 29.22 132.029 29.97H134.849C133.919 28.83 133.409 27.18 133.409 25.5V25.08L133.529 22.86L133.889 17.7C134.099 14.85 132.029 12.72 128.579 12.72C125.429 12.72 123.599 14.52 122.339 17.34L124.589 17.79C125.189 16.17 126.869 14.91 128.519 14.91C129.899 14.91 131.669 15.78 131.669 17.01C131.669 18.6 128.669 19.35 127.319 19.62C124.919 20.13 121.529 21.81 121.529 25.44C121.529 27.93 123.119 30.42 126.149 30.42C128.339 30.42 130.199 29.1 131.279 26.82ZM128.069 21.63L129.449 21.3C130.199 21.15 131.009 20.97 131.699 20.4C131.339 22.95 129.239 28.14 126.479 28.14C125.309 28.14 123.749 27.18 123.749 25.5C123.749 23.79 125.339 22.35 128.069 21.63Z" fill="#FFFFFE"/>
<rect x="52" width="1" height="44" fill="white"/>
</svg>
